<svg width="906" height="442" xmlns="http://www.w3.org/2000/svg" xmlns:xlink="http://www.w3.org/1999/xlink" overflow="hidden"><defs><clipPath id="clip0"><rect x="155" y="108" width="906" height="442"/></clipPath><linearGradient x1="251.5" y1="375.5" x2="251.5" y2="431.5" gradientUnits="userSpaceOnUse" spreadMethod="reflect" id="fill1"><stop offset="0" stop-color="#FFDD9C"/><stop offset="0.5" stop-color="#FFD78E"/><stop offset="1" stop-color="#FFD479"/></linearGradient><linearGradient x1="190.5" y1="375.5" x2="190.5" y2="431.5" gradientUnits="userSpaceOnUse" spreadMethod="reflect" id="fill2"><stop offset="0" stop-color="#F7BDA4"/><stop offset="0.5" stop-color="#F5B195"/><stop offset="1" stop-color="#F8A581"/></linearGradient><linearGradient x1="310.5" y1="375.5" x2="310.5" y2="431.5" gradientUnits="userSpaceOnUse" spreadMethod="reflect" id="fill3"><stop offset="0" stop-color="#B1CBE9"/><stop offset="0.5" stop-color="#A3C1E5"/><stop offset="1" stop-color="#92B9E4"/></linearGradient><linearGradient x1="725.5" y1="374.5" x2="725.5" y2="431.5" gradientUnits="userSpaceOnUse" spreadMethod="reflect" id="fill4"><stop offset="0" stop-color="#FFDD9C"/><stop offset="0.5" stop-color="#FFD78E"/><stop offset="1" stop-color="#FFD479"/></linearGradient><linearGradient x1="785.5" y1="374.5" x2="785.5" y2="431.5" gradientUnits="userSpaceOnUse" spreadMethod="reflect" id="fill5"><stop offset="0" stop-color="#B1CBE9"/><stop offset="0.5" stop-color="#A3C1E5"/><stop offset="1" stop-color="#92B9E4"/></linearGradient><linearGradient x1="961.5" y1="375.5" x2="961.5" y2="432.5" gradientUnits="userSpaceOnUse" spreadMethod="reflect" id="fill6"><stop offset="0" stop-color="#FFDD9C"/><stop offset="0.5" stop-color="#FFD78E"/><stop offset="1" stop-color="#FFD479"/></linearGradient><linearGradient x1="1021.5" y1="375.5" x2="1021.5" y2="432.5" gradientUnits="userSpaceOnUse" spreadMethod="reflect" id="fill7"><stop offset="0" stop-color="#B1CBE9"/><stop offset="0.5" stop-color="#A3C1E5"/><stop offset="1" stop-color="#92B9E4"/></linearGradient><linearGradient x1="251.5" y1="486.5" x2="251.5" y2="549.5" gradientUnits="userSpaceOnUse" spreadMethod="reflect" id="fill8"><stop offset="0" stop-color="#B5D5A7"/><stop offset="0.5" stop-color="#AACE99"/><stop offset="1" stop-color="#9CCA86"/></linearGradient><linearGradient x1="727" y1="486.5" x2="727" y2="549.5" gradientUnits="userSpaceOnUse" spreadMethod="reflect" id="fill9"><stop offset="0" stop-color="#B5D5A7"/><stop offset="0.5" stop-color="#AACE99"/><stop offset="1" stop-color="#9CCA86"/></linearGradient><linearGradient x1="962" y1="485.5" x2="962" y2="548.5" gradientUnits="userSpaceOnUse" spreadMethod="reflect" id="fill10"><stop offset="0" stop-color="#B5D5A7"/><stop offset="0.5" stop-color="#AACE99"/><stop offset="1" stop-color="#9CCA86"/></linearGradient><linearGradient x1="251" y1="109.5" x2="251" y2="172.5" gradientUnits="userSpaceOnUse" spreadMethod="reflect" id="fill11"><stop offset="0" stop-color="#B5D5A7"/><stop offset="0.5" stop-color="#AACE99"/><stop offset="1" stop-color="#9CCA86"/></linearGradient><linearGradient x1="311" y1="248.5" x2="311" y2="281.5" gradientUnits="userSpaceOnUse" spreadMethod="reflect" id="fill12"><stop offset="0" stop-color="#D2D2D2"/><stop offset="0.5" stop-color="#C8C8C8"/><stop offset="1" stop-color="#C0C0C0"/></linearGradient><linearGradient x1="553" y1="248.5" x2="553" y2="280.5" gradientUnits="userSpaceOnUse" spreadMethod="reflect" id="fill13"><stop offset="0" stop-color="#D2D2D2"/><stop offset="0.5" stop-color="#C8C8C8"/><stop offset="1" stop-color="#C0C0C0"/></linearGradient><linearGradient x1="784.5" y1="248.5" x2="784.5" y2="281.5" gradientUnits="userSpaceOnUse" spreadMethod="reflect" id="fill14"><stop offset="0" stop-color="#D2D2D2"/><stop offset="0.5" stop-color="#C8C8C8"/><stop offset="1" stop-color="#C0C0C0"/></linearGradient><linearGradient x1="1021.5" y1="248.5" x2="1021.5" y2="281.5" gradientUnits="userSpaceOnUse" spreadMethod="reflect" id="fill15"><stop offset="0" stop-color="#D2D2D2"/><stop offset="0.5" stop-color="#C8C8C8"/><stop offset="1" stop-color="#C0C0C0"/></linearGradient><linearGradient x1="492.5" y1="375.5" x2="492.5" y2="431.5" gradientUnits="userSpaceOnUse" spreadMethod="reflect" id="fill16"><stop offset="0" stop-color="#FFDD9C"/><stop offset="0.5" stop-color="#FFD78E"/><stop offset="1" stop-color="#FFD479"/></linearGradient><linearGradient x1="433.5" y1="375.5" x2="433.5" y2="431.5" gradientUnits="userSpaceOnUse" spreadMethod="reflect" id="fill17"><stop offset="0" stop-color="#F7BDA4"/><stop offset="0.5" stop-color="#F5B195"/><stop offset="1" stop-color="#F8A581"/></linearGradient><linearGradient x1="552.5" y1="375.5" x2="552.5" y2="431.5" gradientUnits="userSpaceOnUse" spreadMethod="reflect" id="fill18"><stop offset="0" stop-color="#B1CBE9"/><stop offset="0.5" stop-color="#A3C1E5"/><stop offset="1" stop-color="#92B9E4"/></linearGradient><linearGradient x1="493" y1="486.5" x2="493" y2="549.5" gradientUnits="userSpaceOnUse" spreadMethod="reflect" id="fill19"><stop offset="0" stop-color="#B5D5A7"/><stop offset="0.5" stop-color="#AACE99"/><stop offset="1" stop-color="#9CCA86"/></linearGradient></defs><g clip-path="url(#clip0)" transform="translate(-155 -108)"><path d="M491.077 375.709 466.864 281.289 469.448 280.626 493.66 375.047ZM464.613 283.243 466.5 274.5 472.362 281.256Z"/><path d="M724.892 374.93 701.802 281.292 704.391 280.654 727.481 374.291ZM699.532 283.225 701.5 274.5 707.299 281.31Z"/><path d="M960.163 376.433 938.669 281.297 941.27 280.709 962.764 375.846ZM936.361 283.185 938.5 274.5 944.165 281.422Z"/><path d="M691.5 265C691.5 259.753 695.753 255.5 701 255.5 706.247 255.5 710.5 259.753 710.5 265 710.5 270.247 706.247 274.5 701 274.5 695.753 274.5 691.5 270.247 691.5 265Z" stroke="#000000" stroke-width="1.33333" stroke-miterlimit="8" fill-rule="evenodd"/><path d="M929.5 265C929.5 259.753 933.753 255.5 939 255.5 944.247 255.5 948.5 259.753 948.5 265 948.5 270.247 944.247 274.5 939 274.5 933.753 274.5 929.5 270.247 929.5 265Z" stroke="#000000" stroke-width="1.33333" stroke-miterlimit="8" fill-rule="evenodd"/><path d="M0.184622-1.32049 734.891 101.401 734.521 104.042-0.184622 1.32049ZM733.946 98.5763 741.315 103.645 732.838 106.499Z" transform="matrix(1 0 0 -1 190.5 375.146)"/><path d="M0.26845-1.30603 497.481 100.895 496.944 103.507-0.26845 1.30603ZM496.713 98.0142 503.743 103.543 495.102 105.85Z" transform="matrix(1 0 0 -1 190.5 375.043)"/><path d="M0.478675-1.24445 263.711 100.008 262.754 102.497-0.478675 1.24445ZM263.424 97.0401 269.454 103.645 260.552 104.507Z" transform="matrix(1 0 0 -1 190.5 375.146)"/><path d="M250.079 375.709 225.865 281.289 228.448 280.626 252.662 375.047ZM223.613 283.243 225.5 274.5 231.362 281.256Z"/><path d="M1.25905-0.438828 34.2248 94.1439 31.7067 95.0216-1.25905 0.438828ZM36.3041 92.0072 35.1599 100.878 28.7498 94.6402Z" transform="matrix(1 0 0 -1 190.5 375.378)"/><text font-family="Cambria Math,Cambria Math_MSFontService,sans-serif" font-weight="400" font-size="24" transform="translate(203.945 245)">𝛼<tspan font-size="18" x="13.78" y="6">1</tspan><tspan font-size="18" x="23.9467" y="6">,</tspan><tspan font-size="18" x="27.6133" y="6">𝒍</tspan><tspan font-size="14" x="34.1133" y="10">𝟏</tspan><tspan font-size="18" x="15.5267" y="-10">′</tspan><tspan font-size="24" x="241.521" y="0">𝛼</tspan><tspan font-size="18" x="255.301" y="6">1</tspan><tspan font-size="18" x="265.468" y="6">,</tspan><tspan font-size="18" x="269.134" y="6">𝒍</tspan><tspan font-size="14" x="275.634" y="10">𝒊</tspan><tspan font-size="18" x="257.048" y="-10">′</tspan><tspan font-size="24" x="472.818" y="0">𝛼</tspan><tspan font-size="18" x="486.598" y="6">1</tspan><tspan font-size="18" x="496.765" y="6">,</tspan><tspan font-size="18" x="500.432" y="6">𝒉</tspan><tspan font-size="14" x="511.432" y="10">𝟏</tspan><tspan font-size="18" x="488.345" y="-10">′</tspan><tspan font-size="24" x="708.831" y="0">𝛼</tspan><tspan font-size="18" x="722.611" y="6">1</tspan><tspan font-size="18" x="732.778" y="6">,</tspan><tspan font-size="18" x="736.445" y="6">𝒉</tspan><tspan font-size="14" x="747.445" y="10">𝒏</tspan><tspan font-size="18" x="724.358" y="-10">′</tspan></text><rect x="234.5" y="375.5" width="34" height="56" stroke="#FFC000" stroke-width="0.666667" stroke-miterlimit="8" fill="url(#fill1)"/><text font-family="Cambria Math,Cambria Math_MSFontService,sans-serif" font-weight="400" font-size="24" transform="translate(236.188 413)">𝒌<tspan font-size="18" x="14.6667" y="5">𝒍</tspan><tspan font-size="14" x="21.1667" y="8">𝟏</tspan></text><rect x="173.5" y="375.5" width="34" height="56" stroke="#ED7D31" stroke-width="0.666667" stroke-miterlimit="8" fill="url(#fill2)"/><text font-family="Cambria Math,Cambria Math_MSFontService,sans-serif" font-weight="400" font-size="24" transform="translate(177.294 409)">𝒒<tspan font-size="18" x="14.5" y="5">𝒍</tspan><tspan font-size="14" x="21" y="8">𝟏</tspan></text><path d="M1.33333-2.62015e-06 1.33343 46.7586-1.33324 46.7587-1.33333 2.62015e-06ZM4.00009 45.4253 0.000104987 53.4253-3.99991 45.4253Z" fill="#0000FF" transform="matrix(1 0 0 -1 251.5 485.925)"/><path d="M189.5 459.5 253.079 459.5" stroke="#0000FF" stroke-width="2.66667" stroke-miterlimit="8" fill="none" fill-rule="evenodd"/><path d="M1.33333-4.9111e-06 1.33341 21.8366-1.33325 21.8366-1.33333 4.9111e-06ZM4.00008 20.5033 0.000104987 28.5033-3.99992 20.5033Z" fill="#0000FF" transform="matrix(1 0 0 -1 190.5 460.003)"/><rect x="293.5" y="375.5" width="34" height="56" stroke="#5B9BD5" stroke-width="0.666667" stroke-miterlimit="8" fill="url(#fill3)"/><text font-family="Cambria Math,Cambria Math_MSFontService,sans-serif" font-weight="400" font-size="24" transform="translate(295.235 412)">𝒗<tspan font-size="18" x="14.3333" y="5">𝒍</tspan><tspan font-size="14" x="20.8333" y="8">𝟏</tspan></text><path d="M1.33333-4.9111e-06 1.33341 21.8366-1.33325 21.8366-1.33333 4.9111e-06ZM4.00008 20.5033 0.000104987 28.5033-3.99992 20.5033Z" fill="#0000FF" transform="matrix(1 0 0 -1 310.5 460.003)"/><rect x="708.5" y="374.5" width="34" height="57" stroke="#FFC000" stroke-width="0.666667" stroke-miterlimit="8" fill="url(#fill4)"/><path d="M725.837 486.267 725.248 438.183 727.915 438.15 728.504 486.234ZM722.598 439.548 726.5 431.5 730.598 439.45Z" fill="#0000FF"/><rect x="768.5" y="374.5" width="34" height="57" stroke="#5B9BD5" stroke-width="0.666667" stroke-miterlimit="8" fill="url(#fill5)"/><path d="M727.5 459.5 786.691 459.5" stroke="#0000FF" stroke-width="2.66667" stroke-miterlimit="8" fill="none" fill-rule="evenodd"/><path d="M1.33333-4.9111e-06 1.33341 21.8366-1.33325 21.8366-1.33333 4.9111e-06ZM4.00008 20.5033 0.000104987 28.5033-3.99992 20.5033Z" fill="#0000FF" transform="matrix(1 0 0 -1 785.5 460.003)"/><rect x="944.5" y="375.5" width="34" height="57" stroke="#FFC000" stroke-width="0.666667" stroke-miterlimit="8" fill="url(#fill6)"/><path d="M1.33333-2.62015e-06 1.33343 46.7586-1.33324 46.7587-1.33333 2.62015e-06ZM4.00009 45.4253 0.000104987 53.4253-3.99991 45.4253Z" fill="#0000FF" transform="matrix(1 0 0 -1 962.5 485.925)"/><rect x="1004.5" y="375.5" width="33.9999" height="57" stroke="#5B9BD5" stroke-width="0.666667" stroke-miterlimit="8" fill="url(#fill7)"/><path d="M0 0 59.9655 0.000104987" stroke="#0000FF" stroke-width="2.66667" stroke-miterlimit="8" fill="none" fill-rule="evenodd" transform="matrix(1 0 0 -1 963.5 461.5)"/><path d="M1.33333-4.9111e-06 1.33341 21.8366-1.33325 21.8366-1.33333 4.9111e-06ZM4.00008 20.5033 0.000104987 28.5033-3.99992 20.5033Z" fill="#0000FF" transform="matrix(1 0 0 -1 1021.5 461.003)"/><rect x="227.5" y="486.5" width="48" height="63" stroke="#70AD47" stroke-width="0.666667" stroke-miterlimit="8" fill="url(#fill8)"/><rect x="702.5" y="486.5" width="49" height="63" stroke="#70AD47" stroke-width="0.666667" stroke-miterlimit="8" fill="url(#fill9)"/><rect x="937.5" y="485.5" width="49" height="63" stroke="#70AD47" stroke-width="0.666667" stroke-miterlimit="8" fill="url(#fill10)"/><text font-family="Cambria Math,Cambria Math_MSFontService,sans-serif" font-weight="400" font-size="32" transform="translate(945.925 525)">𝒉<tspan font-size="23" x="20.1666" y="7">𝒏</tspan><tspan font-size="32" x="-234.879" y="2">𝒉</tspan><tspan font-size="23" x="-214.712" y="8">𝟏</tspan><tspan font-size="32" x="-706.806" y="2">𝒍</tspan><tspan font-size="23" x="-694.973" y="8">𝟏</tspan></text><rect x="226.5" y="109.5" width="49" height="63" stroke="#70AD47" stroke-width="0.666667" stroke-miterlimit="8" fill="url(#fill11)"/><text font-family="Cambria Math,Cambria Math_MSFontService,sans-serif" font-weight="400" font-size="32" transform="translate(236.453 152)">𝒚<tspan font-size="23" x="19.1667" y="7">𝟏</tspan></text><path d="M16.0625-22.625 30.2344-17.7031 29.8906-16.7188 15.25-20.6094 14.9531-20.6094 0.328125-16.7188 0-17.7031 13.9688-22.625Z" transform="translate(238.586 152)"/><path d="M1.33332-0.00618592 1.73934 87.509-0.927293 87.5214-1.33332 0.00618592ZM4.3998 86.1634 0.436955 94.1818-3.60012 86.2005Z" fill="#FF0000" transform="matrix(1 0 0 -1 310.5 375.682)"/><rect x="295.5" y="248.5" width="31" height="33" stroke="#A5A5A5" stroke-width="0.666667" stroke-miterlimit="8" fill="url(#fill12)"/><path d="M300 254 320.946 275.297" stroke="#000000" stroke-width="4" stroke-miterlimit="8" fill="none" fill-rule="evenodd"/><path d="M320.202 254.853 300.894 275.512" stroke="#000000" stroke-width="4" stroke-miterlimit="8" fill="none" fill-rule="evenodd"/><path d="M1.33331-0.00772908 1.83976 87.3572-0.826864 87.3727-1.33331 0.00772908ZM4.49865 86.0084 0.545092 94.0315-3.50121 86.0548Z" fill="#FF0000" transform="matrix(1 0 0 -1 552.5 374.532)"/><rect x="537.5" y="248.5" width="31" height="32" stroke="#A5A5A5" stroke-width="0.666667" stroke-miterlimit="8" fill="url(#fill13)"/><path d="M542 254 562.946 275.297" stroke="#000000" stroke-width="4" stroke-miterlimit="8" fill="none" fill-rule="evenodd"/><path d="M562.092 254.742 542.783 275.401" stroke="#000000" stroke-width="4" stroke-miterlimit="8" fill="none" fill-rule="evenodd"/><path d="M784.057 374.794 783.23 288.179 785.897 288.154 786.723 374.768ZM780.577 289.538 784.5 281.5 788.576 289.462Z" fill="#FF0000"/><rect x="768.5" y="248.5" width="32" height="33" stroke="#A5A5A5" stroke-width="0.666667" stroke-miterlimit="8" fill="url(#fill14)"/><path d="M774 254 794.946 275.297" stroke="#000000" stroke-width="4" stroke-miterlimit="8" fill="none" fill-rule="evenodd"/><path d="M793.726 254.827 774.417 275.486" stroke="#000000" stroke-width="4" stroke-miterlimit="8" fill="none" fill-rule="evenodd"/><path d="M1020.27 375.794 1020.17 288.168 1022.84 288.165 1022.94 375.791ZM1017.51 289.505 1021.5 281.5 1025.51 289.496Z" fill="#FF0000"/><rect x="1005.5" y="248.5" width="31.9999" height="33" stroke="#A5A5A5" stroke-width="0.666667" stroke-miterlimit="8" fill="url(#fill15)"/><path d="M1011 255 1031.95 276.297" stroke="#000000" stroke-width="4" stroke-miterlimit="8" fill="none" fill-rule="evenodd"/><path d="M1030.86 255.242 1011.55 275.901" stroke="#000000" stroke-width="4" stroke-miterlimit="8" fill="none" fill-rule="evenodd"/><path d="M0 0 0.000104987 108.663" stroke="#FF0000" stroke-width="2.66667" stroke-miterlimit="8" fill="none" fill-rule="evenodd" transform="matrix(1 0 0 -1 310.5 248.163)"/><path d="M0 0 0.000104987 105.645" stroke="#FF0000" stroke-width="2.66667" stroke-miterlimit="8" fill="none" fill-rule="evenodd" transform="matrix(1 0 0 -1 552.5 248.145)"/><path d="M0 0 0.000104987 108.539" stroke="#FF0000" stroke-width="2.66667" stroke-miterlimit="8" fill="none" fill-rule="evenodd" transform="matrix(1 0 0 -1 785.5 249.039)"/><path d="M0 0 0.024357 108.638" stroke="#FF0000" stroke-width="2.66667" stroke-miterlimit="8" fill="none" fill-rule="evenodd" transform="matrix(1 0 0 -1 1021.5 249.138)"/><path d="M235.503 263.167 288.856 263.285 288.85 265.952 235.497 265.833ZM287.529 260.615 295.52 264.633 287.511 268.615Z" fill="#FF0000"/><path d="M476.501 263.167 530.768 263.186 530.767 265.853 476.5 265.833ZM529.435 260.519 537.434 264.522 529.432 268.519Z" fill="#FF0000"/><path d="M711.5 263.167 763.273 263.167 763.273 265.833 711.5 265.833ZM761.94 260.5 769.94 264.5 761.94 268.5Z" fill="#FF0000"/><path d="M948.512 263.167 999.685 263.628 999.661 266.295 948.488 265.833ZM998.376 260.95 1006.34 265.022 998.303 268.95Z" fill="#FF0000"/><path d="M1.87561e-07-1.33333 739.664-1.33323 739.664 1.33344-1.87561e-07 1.33333ZM738.33-3.9999 746.33 0.000104987 738.33 4.0001Z" fill="#FF0000" transform="matrix(-1 0 0 1 1022.83 141.5)"/><path d="M252.5 459.5 311.691 459.5" stroke="#0000FF" stroke-width="2.66667" stroke-miterlimit="8" fill="none" fill-rule="evenodd"/><rect x="475.5" y="375.5" width="34" height="56" stroke="#FFC000" stroke-width="0.666667" stroke-miterlimit="8" fill="url(#fill16)"/><rect x="416.5" y="375.5" width="34" height="56" stroke="#ED7D31" stroke-width="0.666667" stroke-miterlimit="8" fill="url(#fill17)"/><path d="M1.33333-2.62015e-06 1.33343 46.7586-1.33324 46.7587-1.33333 2.62015e-06ZM4.00009 45.4253 0.000104987 53.4253-3.99991 45.4253Z" fill="#0000FF" transform="matrix(1 0 0 -1 492.5 485.925)"/><path d="M431.5 459.5 495.079 459.5" stroke="#0000FF" stroke-width="2.66667" stroke-miterlimit="8" fill="none" fill-rule="evenodd"/><path d="M1.33333-4.9111e-06 1.33341 21.8366-1.33325 21.8366-1.33333 4.9111e-06ZM4.00008 20.5033 0.000104987 28.5033-3.99992 20.5033Z" fill="#0000FF" transform="matrix(1 0 0 -1 433.5 460.003)"/><rect x="535.5" y="375.5" width="34" height="56" stroke="#5B9BD5" stroke-width="0.666667" stroke-miterlimit="8" fill="url(#fill18)"/><path d="M1.33333-4.9111e-06 1.33341 21.8366-1.33325 21.8366-1.33333 4.9111e-06ZM4.00008 20.5033 0.000104987 28.5033-3.99992 20.5033Z" fill="#0000FF" transform="matrix(1 0 0 -1 552.5 460.003)"/><rect x="468.5" y="486.5" width="49" height="63" stroke="#70AD47" stroke-width="0.666667" stroke-miterlimit="8" fill="url(#fill19)"/><text font-family="Cambria Math,Cambria Math_MSFontService,sans-serif" font-weight="400" font-size="32" transform="translate(483.277 527)">𝒍<tspan font-size="23" x="11.8333" y="6">𝒊</tspan></text><path d="M493.5 459.5 552.691 459.5" stroke="#0000FF" stroke-width="2.66667" stroke-miterlimit="8" fill="none" fill-rule="evenodd"/><text font-family="Cambria Math,Cambria Math_MSFontService,sans-serif" font-weight="400" font-size="24" transform="translate(478.696 412)">𝒌<tspan font-size="18" x="14.6667" y="5">𝒍</tspan><tspan font-size="14" x="21.1667" y="9">𝒊</tspan><tspan font-size="24" x="-58.6436" y="-4">𝒒</tspan><tspan font-size="18" x="-44.1436" y="1">𝒍</tspan><tspan font-size="14" x="-37.6436" y="5">𝒊</tspan><tspan font-size="24" x="59.5472" y="-1">𝒗</tspan><tspan font-size="18" x="73.8806" y="4">𝒍</tspan><tspan font-size="14" x="80.3806" y="8">𝒊</tspan><tspan font-size="24" x="230.118" y="-1">𝒌</tspan><tspan font-size="18" x="244.785" y="4">𝒉</tspan><tspan font-size="14" x="255.785" y="7">𝟏</tspan><tspan font-size="24" x="289.415" y="-3">𝒗</tspan><tspan font-size="18" x="303.749" y="2">𝒉</tspan><tspan font-size="14" x="314.749" y="6">𝟏</tspan><tspan font-family="Arial Rounded MT Bold,Arial Rounded MT Bold_MSFontService,sans-serif" font-weight="700" font-size="32" x="-121.603" y="108">…</tspan><tspan font-size="24" x="464.992" y="-1">𝒌</tspan><tspan font-size="18" x="479.658" y="4">𝒉</tspan><tspan font-size="14" x="490.658" y="7">𝒏</tspan><tspan font-size="24" x="525.622" y="-3">𝒗</tspan><tspan font-size="18" x="539.956" y="2">𝒉</tspan><tspan font-size="14" x="550.956" y="6">𝒏</tspan><tspan font-family="Arial Rounded MT Bold,Arial Rounded MT Bold_MSFontService,sans-serif" font-weight="700" font-size="32" x="122.35" y="108">…</tspan><tspan font-family="Arial Rounded MT Bold,Arial Rounded MT Bold_MSFontService,sans-serif" font-weight="700" font-size="32" x="353.883" y="107">…</tspan></text><path d="M216.5 265C216.5 259.753 220.753 255.5 226 255.5 231.247 255.5 235.5 259.753 235.5 265 235.5 270.247 231.247 274.5 226 274.5 220.753 274.5 216.5 270.247 216.5 265Z" stroke="#000000" stroke-width="1.33333" stroke-miterlimit="8" fill-rule="evenodd"/><path d="M457.5 265C457.5 259.753 461.753 255.5 467 255.5 472.247 255.5 476.5 259.753 476.5 265 476.5 270.247 472.247 274.5 467 274.5 461.753 274.5 457.5 270.247 457.5 265Z" stroke="#000000" stroke-width="1.33333" stroke-miterlimit="8" fill-rule="evenodd"/></g></svg>